<mxfile host="65bd71144e">
    <diagram id="PRHWjCUWy074X5Ck0qS1" name="Page-1">
        <mxGraphModel dx="1066" dy="732" grid="0" gridSize="10" guides="1" tooltips="1" connect="1" arrows="1" fold="1" page="0" pageScale="1" pageWidth="850" pageHeight="1100" math="0" shadow="0">
            <root>
                <mxCell id="0"/>
                <mxCell id="1" parent="0"/>
                <mxCell id="2" value="&lt;h1 style=&quot;border-color: rgb(0, 0, 0); font-style: normal; font-variant-ligatures: normal; font-variant-caps: normal; letter-spacing: normal; orphans: 2; text-align: left; text-indent: 0px; text-transform: none; widows: 2; word-spacing: 0px; -webkit-text-stroke-width: 0px; background-color: rgb(42, 37, 47); text-decoration-thickness: initial; text-decoration-style: initial; text-decoration-color: initial; line-height: 120%;&quot;&gt;&lt;font color=&quot;#ffffff&quot; face=&quot;Verdana&quot; style=&quot;border-color: rgb(0, 0, 0);&quot;&gt;Use Case 2&lt;/font&gt;&lt;/h1&gt;&lt;div style=&quot;border-color: rgb(0, 0, 0); font-style: normal; font-variant-ligatures: normal; font-variant-caps: normal; font-weight: 400; letter-spacing: normal; orphans: 2; text-align: left; text-indent: 0px; text-transform: none; widows: 2; word-spacing: 0px; -webkit-text-stroke-width: 0px; background-color: rgb(42, 37, 47); text-decoration-thickness: initial; text-decoration-style: initial; text-decoration-color: initial; line-height: 120%;&quot;&gt;&lt;span style=&quot;caret-color: rgb(0, 0, 0);&quot; id=&quot;docs-internal-guid-80b914c2-7fff-f924-4065-2295af226b41&quot;&gt;&lt;span style=&quot;background-color: transparent; font-variant-alternates: normal; font-variant-numeric: normal; font-variant-east-asian: normal; font-variant-position: normal; vertical-align: baseline;&quot;&gt;&lt;font color=&quot;#ffffff&quot; style=&quot;font-size: 14px;&quot; face=&quot;Verdana&quot;&gt;A user can customize the password generator interface by selecting which types of characters (lowercase, uppercase, numbers, symbols) to include in the generated password. The user selects the desired criteria and then generates a password based on the selected character types. &lt;/font&gt;&lt;/span&gt;&lt;/span&gt;&lt;br&gt;&lt;/div&gt;" style="text;whiteSpace=wrap;html=1;fillColor=default;fillStyle=auto;verticalAlign=middle;" vertex="1" parent="1">
                    <mxGeometry x="10" y="10" width="560" height="120" as="geometry"/>
                </mxCell>
                <mxCell id="3" value="User" style="shape=umlLifeline;perimeter=lifelinePerimeter;whiteSpace=wrap;html=1;container=1;collapsible=0;recursiveResize=0;outlineConnect=0;lifelineDashed=0;" vertex="1" parent="1">
                    <mxGeometry x="10" y="160" width="100" height="520" as="geometry"/>
                </mxCell>
                <mxCell id="4" value="" style="shape=actor;whiteSpace=wrap;html=1;" vertex="1" parent="3">
                    <mxGeometry x="10" y="10" width="20" height="20" as="geometry"/>
                </mxCell>
                <mxCell id="5" value="" style="html=1;points=[];perimeter=orthogonalPerimeter;" vertex="1" parent="3">
                    <mxGeometry x="45" y="80" width="10" height="390" as="geometry"/>
                </mxCell>
                <mxCell id="6" value="Password &lt;br&gt;Generation &lt;br&gt;System" style="shape=umlLifeline;perimeter=lifelinePerimeter;whiteSpace=wrap;html=1;container=1;collapsible=0;recursiveResize=0;outlineConnect=0;lifelineDashed=0;" vertex="1" parent="1">
                    <mxGeometry x="470" y="160" width="150" height="520" as="geometry"/>
                </mxCell>
                <mxCell id="7" value="" style="sketch=0;pointerEvents=1;shadow=0;dashed=0;html=1;strokeColor=none;fillColor=#505050;labelPosition=center;verticalLabelPosition=bottom;verticalAlign=top;outlineConnect=0;align=center;shape=mxgraph.office.security.lock_with_key_security_ghosted;" vertex="1" parent="6">
                    <mxGeometry x="20" y="10" width="20" height="20" as="geometry"/>
                </mxCell>
                <mxCell id="8" value="Generate&lt;br&gt;Password" style="edgeStyle=orthogonalEdgeStyle;html=1;align=left;spacingLeft=2;endArrow=block;rounded=0;entryX=1;entryY=0;" edge="1" parent="6">
                    <mxGeometry relative="1" as="geometry">
                        <mxPoint x="80" y="290" as="sourcePoint"/>
                        <Array as="points">
                            <mxPoint x="105" y="290"/>
                        </Array>
                        <mxPoint x="80" y="333" as="targetPoint"/>
                    </mxGeometry>
                </mxCell>
                <mxCell id="9" value="Display password criteria" style="html=1;verticalAlign=bottom;endArrow=block;" edge="1" parent="1">
                    <mxGeometry width="80" relative="1" as="geometry">
                        <mxPoint x="300" y="320" as="sourcePoint"/>
                        <mxPoint x="70" y="320" as="targetPoint"/>
                    </mxGeometry>
                </mxCell>
                <mxCell id="10" value="Choose specific criteria" style="html=1;verticalAlign=bottom;endArrow=block;" edge="1" parent="1">
                    <mxGeometry width="80" relative="1" as="geometry">
                        <mxPoint x="70" y="400" as="sourcePoint"/>
                        <mxPoint x="300" y="400" as="targetPoint"/>
                    </mxGeometry>
                </mxCell>
                <mxCell id="11" value="Displays Generated Password" style="html=1;verticalAlign=bottom;endArrow=block;" edge="1" parent="1">
                    <mxGeometry width="80" relative="1" as="geometry">
                        <mxPoint x="300" y="560" as="sourcePoint"/>
                        <mxPoint x="70" y="560" as="targetPoint"/>
                    </mxGeometry>
                </mxCell>
                <mxCell id="12" value="Accesses Password Gen System" style="html=1;verticalAlign=bottom;endArrow=block;" edge="1" parent="1">
                    <mxGeometry width="80" relative="1" as="geometry">
                        <mxPoint x="70" y="243" as="sourcePoint"/>
                        <mxPoint x="300" y="243" as="targetPoint"/>
                    </mxGeometry>
                </mxCell>
                <mxCell id="13" value="&amp;nbsp; Web&amp;nbsp;&lt;br&gt;&amp;nbsp; &amp;nbsp; &amp;nbsp; &amp;nbsp;Interface" style="shape=umlLifeline;perimeter=lifelinePerimeter;whiteSpace=wrap;html=1;container=1;collapsible=0;recursiveResize=0;outlineConnect=0;lifelineDashed=0;" vertex="1" parent="1">
                    <mxGeometry x="250" y="160" width="100" height="520" as="geometry"/>
                </mxCell>
                <mxCell id="14" value="" style="verticalLabelPosition=bottom;html=1;verticalAlign=top;align=center;strokeColor=none;fillColor=#00BEF2;shape=mxgraph.azure.website_generic;pointerEvents=1;" vertex="1" parent="13">
                    <mxGeometry x="10" y="10" width="20" height="20" as="geometry"/>
                </mxCell>
                <mxCell id="15" value="Submit password &lt;br&gt;generation instruction" style="html=1;verticalAlign=bottom;endArrow=block;" edge="1" parent="1" source="13">
                    <mxGeometry width="80" relative="1" as="geometry">
                        <mxPoint x="380" y="440" as="sourcePoint"/>
                        <mxPoint x="540" y="420" as="targetPoint"/>
                    </mxGeometry>
                </mxCell>
                <mxCell id="16" value="Return Generated Password" style="html=1;verticalAlign=bottom;endArrow=block;" edge="1" parent="1" target="13">
                    <mxGeometry width="80" relative="1" as="geometry">
                        <mxPoint x="540" y="520" as="sourcePoint"/>
                        <mxPoint x="380" y="520" as="targetPoint"/>
                    </mxGeometry>
                </mxCell>
                <mxCell id="17" value="&amp;nbsp; &amp;nbsp; &amp;nbsp; &amp;nbsp; &amp;nbsp;Clipboard" style="shape=umlLifeline;perimeter=lifelinePerimeter;whiteSpace=wrap;html=1;container=1;collapsible=0;recursiveResize=0;outlineConnect=0;lifelineDashed=0;" vertex="1" parent="1">
                    <mxGeometry x="710" y="160" width="100" height="520" as="geometry"/>
                </mxCell>
                <mxCell id="18" value="" style="sketch=0;pointerEvents=1;shadow=0;dashed=0;html=1;strokeColor=none;fillColor=#505050;labelPosition=center;verticalLabelPosition=bottom;verticalAlign=top;outlineConnect=0;align=center;shape=mxgraph.office.concepts.clipboard;labelBackgroundColor=#18141D;labelBorderColor=none;fontFamily=Helvetica;fontSize=12;fontColor=none;" vertex="1" parent="17">
                    <mxGeometry x="10" y="10" width="20" height="20" as="geometry"/>
                </mxCell>
                <mxCell id="19" value="Copy password to clipboard" style="html=1;verticalAlign=bottom;endArrow=block;" edge="1" parent="1">
                    <mxGeometry width="80" relative="1" as="geometry">
                        <mxPoint x="70" y="610" as="sourcePoint"/>
                        <mxPoint x="300" y="610" as="targetPoint"/>
                        <Array as="points"/>
                    </mxGeometry>
                </mxCell>
                <mxCell id="20" value="&amp;nbsp; &amp;nbsp; &amp;nbsp; &amp;nbsp; &amp;nbsp;Copy password" style="html=1;verticalAlign=bottom;endArrow=block;" edge="1" parent="1" target="17">
                    <mxGeometry width="80" relative="1" as="geometry">
                        <mxPoint x="300" y="643" as="sourcePoint"/>
                        <mxPoint x="610" y="630" as="targetPoint"/>
                    </mxGeometry>
                </mxCell>
            </root>
        </mxGraphModel>
    </diagram>
</mxfile>